<svg xmlns="http://www.w3.org/2000/svg" viewBox="0 0 192 192" width="192" height="192">
  <!-- Background -->
  <rect width="192" height="192" rx="38" ry="38" fill="#1e1b4b" />
  
  <!-- Eye of Horus symbol for Tarot de Thoth -->
  <g transform="translate(24, 24) scale(0.72)">
    <path fill="#fde047" d="M128 32c-55.14 0-100 44.86-100 100s44.86 100 100 100 100-44.86 100-100-44.86-100-100-100zm0 180c-44.11 0-80-35.89-80-80s35.89-80 80-80 80 35.89 80 80-35.89 80-80 80z">
      <animate attributeName="opacity" values="0.85;1;0.85" dur="3s" repeatCount="indefinite" />
    </path>
    <path fill="#fde047" d="M184.57 96c-6.83-11.27-16.1-20.12-27.75-26.39-11.64-6.28-24.45-9.45-38.3-9.45-2.88 0-5.73.15-8.55.45 15.05 1.57 27.95 6.8 38.63 15.61 10.85 8.95 18.45 21.05 22.73 36.06h-36.61c-1.87-4.66-4.76-8.06-8.63-10.12-3.78-2-8.31-3.05-13.51-3.05-5.54 0-10.29 1.05-14.22 3.11-3.93 2.07-6.93 5.39-8.98 9.89-.5 1.14-.96 2.37-1.33 3.67H61.95c1.32-10.27 4.49-19.1 9.52-26.5 5.03-7.4 11.65-13.18 19.8-17.34 8.17-4.16 17.42-6.26 27.71-6.26 10.13 0 19.33 2.1 27.53 6.26 8.2 4.16 14.84 9.95 19.85 17.34 5.02 7.4 8.22 16.24 9.58 26.5h-43.42l-.06 2.34h84.72c.97-6.44 1.46-13.15 1.46-20.1h-34.07zm-86.1 36.26c0-1.12.12-2.24.34-3.37.23-1.13.57-2.24 1.03-3.33.47-1.09 1.05-2.11 1.74-3.06.7-.95 1.53-1.79 2.49-2.53.96-.74 2.06-1.32 3.29-1.75 1.23-.43 2.61-.65 4.11-.65 1.49 0 2.85.22 4.08.65 1.23.43 2.33 1.02 3.29 1.75.96.74 1.79 1.58 2.49 2.53.7.95 1.28 1.97 1.74 3.06.47 1.09.81 2.21 1.03 3.33.23 1.13.34 2.26.34 3.37 0 1.15-.12 2.29-.34 3.42-.23 1.13-.57 2.24-1.03 3.33-.47 1.09-1.05 2.11-1.74 3.06-.7.95-1.53 1.78-2.49 2.47-.96.7-2.06 1.26-3.29 1.67-1.23.42-2.59.63-4.08.63-1.51 0-2.88-.21-4.11-.63-1.23-.42-2.33-.97-3.29-1.67-.96-.7-1.79-1.52-2.49-2.47-.7-.95-1.28-1.97-1.74-3.06-.47-1.09-.81-2.21-1.03-3.33-.23-1.13-.34-2.27-.34-3.42zm24.06-9.7c-.85-.55-1.83-.82-2.93-.82-1.12 0-2.1.28-2.96.82-.85.55-1.54 1.28-2.06 2.19-.51.92-.76 1.94-.76 3.07 0 1.15.26 2.18.76 3.1.52.92 1.21 1.65 2.06 2.22.87.55 1.85.82 2.96.82 1.1 0 2.07-.28 2.93-.82.87-.57 1.57-1.3 2.1-2.22.53-.92.8-1.95.8-3.1 0-1.13-.27-2.15-.8-3.07-.53-.92-1.23-1.64-2.1-2.19z">
      <animate attributeName="opacity" values="0.9;1;0.9" dur="3s" repeatCount="indefinite" />
    </path>
    <path fill="#fde047" d="M144.81 147.2c-1.78-1.74-4.22-2.81-6.74-2.95-3.49-.2-6.84 1.4-8.92 3.99-2.1 2.6-2.85 6.12-2.01 9.37.83 3.19 3.35 5.88 6.51 6.94 3.28 1.1 7.05.55 9.91-1.41 2.83-1.94 4.61-5.21 4.61-8.59 0-2.85-1.18-5.65-3.36-7.35">
      <animate attributeName="opacity" values="0.85;1;0.85" dur="2s" repeatCount="indefinite" />
    </path>
  </g>
  
  <!-- Subtle glow effect -->
  <circle cx="96" cy="96" r="70" fill="url(#glow)" filter="blur(15px)" opacity="0.5" />
  
  <!-- Gradient definitions -->
  <defs>
    <radialGradient id="glow" cx="50%" cy="50%" r="50%" fx="50%" fy="50%">
      <stop offset="0%" stop-color="#fde047" stop-opacity="0.8" />
      <stop offset="100%" stop-color="#fde047" stop-opacity="0" />
    </radialGradient>
  </defs>
</svg>
