<svg xmlns="http://www.w3.org/2000/svg" viewBox="0 0 512 512" width="512" height="512">
  <!-- Eye of Horus symbol for Tarot de Thoth -->
  <path fill="#000000" d="M256 64c-110.28 0-200 89.72-200 200s89.72 200 200 200 200-89.72 200-200-89.72-200-200-200zm0 360c-88.22 0-160-71.78-160-160s71.78-160 160-160 160 71.78 160 160-71.78 160-160 160z"/>
  <path fill="#000000" d="M369.14 192c-13.65-22.54-32.21-40.23-55.5-52.78-23.27-12.55-48.89-18.9-76.59-18.9-5.75 0-11.46.3-17.09.89 30.1 3.14 55.9 13.6 77.26 31.22 21.69 17.9 36.9 42.1 45.45 72.12h-73.22c-3.74-9.32-9.52-16.12-17.26-20.24-7.56-4.01-16.62-6.1-27.02-6.1-11.07 0-20.58 2.09-28.43 6.22-7.85 4.14-13.86 10.78-17.95 19.77-1.01 2.28-1.91 4.74-2.66 7.33H123.9c2.64-20.54 8.98-38.21 19.04-53.01 10.06-14.79 23.3-26.37 39.59-34.68 16.33-8.31 34.83-12.51 55.41-12.51 20.25 0 38.65 4.2 55.06 12.51 16.39 8.31 29.67 19.89 39.7 34.68 10.03 14.8 16.44 32.47 19.16 53.01h-86.83l-.11 4.67h169.45c1.94-12.88 2.92-26.3 2.92-40.2h-68.15zm-172.2 72.52c0-2.23.23-4.48.68-6.74.45-2.26 1.14-4.48 2.06-6.66.93-2.18 2.09-4.22 3.48-6.12 1.4-1.9 3.06-3.58 4.98-5.05 1.92-1.47 4.12-2.63 6.58-3.49 2.46-.86 5.21-1.29 8.22-1.29 2.97 0 5.69.43 8.15 1.29 2.46.86 4.66 2.03 6.58 3.49 1.92 1.47 3.58 3.15 4.98 5.05 1.4 1.9 2.56 3.94 3.48 6.12.93 2.18 1.62 4.41 2.06 6.66.45 2.26.68 4.51.68 6.74 0 2.3-.23 4.58-.68 6.84-.45 2.26-1.14 4.48-2.06 6.66-.93 2.18-2.09 4.22-3.48 6.12-1.4 1.9-3.06 3.55-4.98 4.94-1.92 1.39-4.12 2.51-6.58 3.34-2.46.83-5.17 1.25-8.15 1.25-3.01 0-5.76-.42-8.22-1.25-2.46-.83-4.66-1.94-6.58-3.34-1.92-1.39-3.58-3.04-4.98-4.94-1.4-1.9-2.56-3.94-3.48-6.12-.93-2.18-1.62-4.41-2.06-6.66-.45-2.26-.68-4.54-.68-6.84zm48.12-19.39c-1.7-1.09-3.65-1.64-5.85-1.64-2.23 0-4.2.55-5.92 1.64-1.7 1.09-3.07 2.55-4.11 4.38-1.01 1.83-1.52 3.87-1.52 6.13 0 2.3.51 4.36 1.52 6.19 1.03 1.83 2.41 3.3 4.11 4.43 1.73 1.09 3.7 1.64 5.92 1.64 2.19 0 4.14-.55 5.85-1.64 1.73-1.13 3.13-2.6 4.19-4.43 1.06-1.83 1.59-3.89 1.59-6.19 0-2.26-.53-4.3-1.59-6.13-1.06-1.83-2.46-3.28-4.19-4.38z"/>
  <path fill="#000000" d="M289.61 294.4c-3.55-3.47-8.44-5.61-13.48-5.89-6.97-.39-13.67 2.8-17.83 7.97-4.19 5.19-5.69 12.24-4.01 18.73 1.65 6.38 6.69 11.76 13.01 13.88 6.56 2.2 14.1 1.09 19.81-2.82 5.66-3.87 9.22-10.42 9.22-17.18 0-5.69-2.36-11.29-6.72-14.69z"/>
</svg>
